<svg id="圖層_1" data-name="圖層 1" xmlns="http://www.w3.org/2000/svg" viewBox="0 0 801 620"><path d="M786.75,557,501.47,26.11a26.15,26.15,0,0,0-46.43,0L276.28,358.8,220.6,255.19A26.62,26.62,0,0,0,203,241.72v-9.65a3.85,3.85,0,0,1,3.07-3.76L300,209.56a3.84,3.84,0,0,0,.73-7.29L196.83,158a6.29,6.29,0,0,0-8.76,5.78l-.1,79.14a26.76,26.76,0,0,0-13.79,12.3L12,557a27.37,27.37,0,0,0,.62,26.87A25.43,25.43,0,0,0,34.54,596.5H764.2a25.43,25.43,0,0,0,21.94-12.62A27.37,27.37,0,0,0,786.75,557ZM479.2,48l98.32,185c0,1.78-1.37,3.37-3,2.82l-58.33-19.65a2.1,2.1,0,0,0-2.38.84l-81.88,75.55c-1.36,1.82-3.85.86-4.1-1.57l-14.13-60.5c-.2-2-2-3.12-3.44-2.19L376.47,239c-1.58,1-3.22-.36-3.44-2.14L477.3,48.06A10.13,10.13,0,0,1,479.2,48Z"/></svg>