<svg id="圖層_1" data-name="圖層 1" xmlns="http://www.w3.org/2000/svg" viewBox="0 0 767 521"><defs><style>.cls-1{opacity:0.59;}</style></defs><g class="cls-1"><path d="M316.74,99.41l-84.5-28.48c-3.37-1.14-7.12.81-7.12,3.71L225,136.8c-5.9,1.58-11.42,5.67-15.35,12.31L35.47,442.74c-12.42,20.94-.2,50.3,20.94,50.3H140.6L298.1,227.56l-46.54-78.45c-3.7-6.24-8.8-10.2-14.29-12l0-18.59a2.69,2.69,0,0,1,2.49-2.42l76.36-12C319.14,103.62,319.55,100.36,316.74,99.41Z"/></g><path d="M340.56,215.35,446,37.62c10.81-18.21,33-18.21,43.8,0l239,402.81c13,21.9.22,52.61-21.89,52.61H175.81Z"/></svg>